<?xml version="1.0" encoding="utf-8" ?>
<svg baseProfile="full" height="200mm" version="1.1" viewBox="0,0,200,200" width="200mm" xmlns="http://www.w3.org/2000/svg" xmlns:ev="http://www.w3.org/2001/xml-events" xmlns:xlink="http://www.w3.org/1999/xlink"><defs /><rect fill="#1a1a1a" height="200" width="200" x="0" y="0" /><text alignment-baseline="middle" fill="#e1ed5e" style="dominant-baseline: central; font-size:9.0px; font-family:Arial;" text-anchor="middle" x="100.0" y="100.0">2025</text><line stroke="#e1ed5e" stroke-width="0.3" x1="100.0" x2="100.0" y1="15.0" y2="10.0" /><path d="M 100.0 14.0 a86.0,86.0 0 0,1 42.46469731375804,11.215312516191453" fill="none" id="id37" stroke="none" /><text fill="#e1ed5e" style="font-size:6.75px; font-family:Arial;" text-anchor="middle"><textPath startOffset="22.20632615414155" xlink:href="#id37">January</textPath></text><line stroke="#e1ed5e" stroke-width="0.3" x1="143.23703022742887" x2="145.7803849466894" y1="26.81831364943548" y2="22.513508569990506" /><path d="M 143.74570117128098 25.957352633546492 a86.0,86.0 0 0,1 28.547481713284135,27.462654790039103" fill="none" id="id38" stroke="none" /><text fill="#e1ed5e" style="font-size:6.75px; font-family:Arial;" text-anchor="middle"><textPath startOffset="19.985693538727396" xlink:href="#id38">February</textPath></text><path d="M 111.90073688211348 82.69761687909136 l 15.001945624697383 -21.811204913510856 a47.472382444833656,47.472382444833656 0 0,0 0.6692901986519522,0.46888055567455983 l -15.375166962932987 21.54973951507236" fill="#cfff1d" stroke="none" /><path d="M 112.19680574252982 82.90503203632743 l 2.7439158140139597 -3.8458555400304237 a25.72437073367222,25.72437073367222 0 0,0 0.3582482240435222,0.26028257035000996 l -2.8097093544112703 3.7980537348637387" fill="#ff0000" stroke="none" /><path d="M 113.34407831869373 83.78471172551755 l 15.190771535622257 -18.459329575190196 a44.906199786100736,44.906199786100736 0 0,0 0.5926388006917103,0.4963179521998046 l -15.506267873273085 18.19511046559657" fill="#efff19" stroke="none" /><path d="M 113.6212207817346 84.01681056812373 l 11.672066840661106 -13.696045190455443 a38.99496591249503,38.99496591249503 0 0,0 0.5071317624885922,0.4397796670707317 l -11.906092401796462 13.493100529965037" fill="#ffc112" stroke="none" /><path d="M 114.16331599549186 84.49514656593476 l 12.10293653283351 -13.249316552924974 a38.9450678972638,38.9450678972638 0 0,0 0.4910641402033265,0.4563906002156364 l -12.329208556831684 13.039021366634696" fill="#ffc111" stroke="none" /><path d="M 116.82858285166822 87.43820079747576 l 12.778774198103193 -9.5387946178164 a36.946337283746104,36.946337283746104 0 0,0 0.3760387432484901,0.5129164231901011 l -12.94107555386531 9.317415750954806" fill="#ffa50f" stroke="none" /><path d="M 117.45458315368197 88.32363383020206 l 14.9143505467255 -9.977059700309015 a38.94378924570118,38.94378924570118 0 0,0 0.3679323246789988,0.5603861728719725 l -15.083879506762422 9.71885546345937" fill="#ffc111" stroke="none" /><line stroke="#e1ed5e" stroke-width="0.3" x1="172.23445277983987" x2="176.4835382374775" y1="55.19839476539836" y2="52.563006222186495" /><path d="M 173.08426987136738 54.67131705675599 a86.0,86.0 0 0,1 12.851231095245387,41.99856678651699" fill="none" id="id39" stroke="none" /><text fill="#e1ed5e" style="font-size:6.75px; font-family:Arial;" text-anchor="middle"><textPath startOffset="22.20632615414155" xlink:href="#id39">March</textPath></text><path d="M 118.3937258080291 89.86733742301442 l 13.185603204262794 -7.263632693953415 a36.05391948207955,36.05391948207955 0 0,0 0.2947698079286981,0.5461636863166598 l -13.308681111409957 7.035588024304297" fill="#ff990e" stroke="none" /><path d="M 120.78858239683441 97.02765380044208 l 23.674093070991542 -3.384915778492778 a44.91485600126957,44.91485600126957 0 0,0 0.10284218944200942,0.7662937654315105 l -23.72885125949139 2.9769036709966032" fill="#efff19" stroke="none" /><path d="M 120.87857604477298 97.74499172005257 l 32.599462723738505 -3.520932567729966 a53.78905207569926,53.78905207569926 0 0,0 0.09149997842725055,0.9213922958020203 l -32.655239827847986 2.9592647412235107" fill="#84ff25" stroke="none" /><path d="M 120.94382443527127 98.46500227214037 l 29.819486450991743 -2.1855055216719586 a50.899468332833926,50.899468332833926 0 0,0 0.05652121522434073,0.8743581826385481 l -29.8526882572205 1.6718882747803754" fill="#a5ff21" stroke="none" /><path d="M 120.98425023603335 99.18683210126433 l 17.871523993735117 -0.6925455734527471 a38.884937495835956,38.884937495835956 0 0,0 0.02016148002513361,0.6690613682265968 l -17.880797168215896 0.3848140578011513" fill="#ffc011" stroke="none" /><line stroke="#e1ed5e" stroke-width="0.3" x1="184.98032266829074" x2="189.97916517819016" y1="98.17113171792111" y2="98.06355123074" /><path d="M 185.9800911702706 98.14961562048488 a86.0,86.0 0 0,1 -9.607161424134198,41.387399972396054" fill="none" id="id40" stroke="none" /><text fill="#e1ed5e" style="font-size:6.75px; font-family:Arial;" text-anchor="middle"><textPath startOffset="21.466115282336823" xlink:href="#id40">April</textPath></text><path d="M 120.99824983174949 100.27111621757518 l 34.65539247338289 0.4474486684009656 a55.658280941140994,55.658280941140994 0 0,0 -0.02061460096287804,0.9578795032258718 l -34.642555809735 -1.0439179874169522" fill="#6eff28" stroke="none" /><path d="M 120.89721153311464 102.0752229133903 l 35.65411723592345 3.540675315816378 a56.82949144999137,56.82949144999137 0 0,0 -0.10504714595020548,0.9726061072639856 l -35.587887788472194 -4.153877744965155" fill="#62ff29" stroke="none" /><path d="M 120.8583938346157 102.4346265915055 l 17.86903653079188 2.0857038105326766 a38.990348160167585,38.990348160167585 0 0,0 -0.08354794386416539,0.6659593161526309 l -17.830487077680864 -2.3929808809727025" fill="#ffc112" stroke="none" /><path d="M 120.5718875245553 104.21870165774334 l 17.562116319448865 3.6014842654522945 a38.92759377418377,38.92759377418377 0 0,0 -0.14026160966990475,0.655255544883578 l -17.49752067105452 -3.9032536297520415" fill="#ffc111" stroke="none" /><path d="M 120.41448212921028 104.9243191809786 l 35.815722761667594 8.639359522303703 a57.84297124142208,57.84297124142208 0 0,0 -0.24180754393109696,0.9659009381382748 l -35.66170390344144 -9.254588299839373" fill="#56ff2a" stroke="none" /><path d="M 120.13307415673323 105.97154293290107 l 60.399222470199675 17.914628798703227 a84.0,84.0 0 0,0 -0.4230929099754692,1.3826921097917715 l -60.08190278771807 -18.951647881047055" fill="#4dd2ff" stroke="none" /><path d="M 120.02730092923936 106.31721596034902 l 30.164952814506528 9.514937736056336 a52.63002400287477,52.63002400287477 0 0,0 -0.2799610243010491,0.861631435542066 l -29.99669953918923 -10.032768071576196" fill="#91ff24" stroke="none" /><path d="M 119.12269723197855 108.67885076344098 l 16.752285689612076 7.603037672088284 a39.396881737663456,39.396881737663456 0 0,0 -0.2855812103729367,0.615116520646141 l -16.618929862399305 -7.890274260013256" fill="#ffc712" stroke="none" /><line stroke="#e1ed5e" stroke-width="0.3" x1="174.80103733775053" x2="179.2010983576182" y1="140.37084112569926" y2="142.7455964860345" /><path d="M 175.68104954172406 140.8457921977663 a86.0,86.0 0 0,1 -30.038265399797805,32.042727171017184" fill="none" id="id41" stroke="none" /><text fill="#e1ed5e" style="font-size:6.75px; font-family:Arial;" text-anchor="middle"><textPath startOffset="22.206326154141568" xlink:href="#id41">May</textPath></text><line stroke="#e1ed5e" stroke-width="0.3" x1="143.8653032363475" x2="146.44561519142675" y1="172.8068346515853" y2="177.08958963109032" /><path d="M 144.38136562736335 173.6633856474863 a86.0,86.0 0 0,1 -40.68145358897372,12.25698825130547" fill="none" id="id42" stroke="none" /><text fill="#e1ed5e" style="font-size:6.75px; font-family:Arial;" text-anchor="middle"><textPath startOffset="21.466115282336833" xlink:href="#id42">June</textPath></text><path d="M 108.59647513512805 119.15986991738527 l 6.213558555878822 13.848812656737966 a36.17886431617203,36.17886431617203 0 0,0 -0.5703844756879477,0.25003979208699745 l -5.974253405533121 -13.953717002119419" fill="#ff9b0e" stroke="none" /><line stroke="#e1ed5e" stroke-width="0.3" x1="102.19456741930631" x2="102.32365962044197" y1="184.97166512339345" y2="189.96999836594603" /><path d="M 102.22038585953345 185.97133177190398 a86.0,86.0 0 0,1 -42.740103519485714,-10.115201625700543" fill="none" id="id43" stroke="none" /><text fill="#e1ed5e" style="font-size:6.75px; font-family:Arial;" text-anchor="middle"><textPath startOffset="22.20632615414155" xlink:href="#id43">July</textPath></text><path d="M 99.09653310690486 120.98055641714683 l -1.285050737433735 29.841801289762977 a50.86945696887505,50.86945696887505 0 0,0 -0.8744990913852614,-0.04520161414005067 l 1.7985378972324852 -29.815259868860725" fill="#a6ff21" stroke="none" /><line stroke="#e1ed5e" stroke-width="0.3" x1="58.666819895761336" x2="56.23545636021788" y1="174.27360380694188" y2="178.64263932499728" /><path d="M 58.180547188652646 175.14741091055294 a86.0,86.0 0 0,1 -31.652253787137756,-30.449443065178592" fill="none" id="id44" stroke="none" /><text fill="#e1ed5e" style="font-size:6.75px; font-family:Arial;" text-anchor="middle"><textPath startOffset="22.20632615414155" xlink:href="#id44">August</textPath></text><line stroke="#e1ed5e" stroke-width="0.3" x1="26.63291911575756" x2="22.317208475507996" y1="142.92168965132927" y2="145.44649492493687" /><path d="M 25.769776987707644 143.4266507060508 a86.0,86.0 0 0,1 -11.730757126820373,-40.83630448921669" fill="none" id="id45" stroke="none" /><text fill="#e1ed5e" style="font-size:6.75px; font-family:Arial;" text-anchor="middle"><textPath startOffset="21.46611528233685" xlink:href="#id45">September</textPath></text><line stroke="#e1ed5e" stroke-width="0.3" x1="15.007084014347285" x2="10.007500721073583" y1="101.09737516637583" y2="101.16192664675087" /><path d="M 14.007167355692545 101.11028546245083 a86.0,86.0 0 0,1 10.666146001902534,-42.60595125391555" fill="none" id="id46" stroke="none" /><text fill="#e1ed5e" style="font-size:6.75px; font-family:Arial;" text-anchor="middle"><textPath startOffset="22.20632615414155" xlink:href="#id46">October</textPath></text><line stroke="#e1ed5e" stroke-width="0.3" x1="26.266209847984243" x2="21.928928074336255" y1="57.711370442889674" y2="55.22380399835377" /><path d="M 25.398753493254645 57.213857153982495 a86.0,86.0 0 0,1 29.58750427330803,-30.492523968695096" fill="none" id="id47" stroke="none" /><text fill="#e1ed5e" style="font-size:6.75px; font-family:Arial;" text-anchor="middle"><textPath startOffset="21.46611528233685" xlink:href="#id47">November</textPath></text><line stroke="#e1ed5e" stroke-width="0.3" x1="56.76296977257108" x2="54.21961505331056" y1="26.818313649435495" y2="22.513508569990535" /><path d="M 56.25429882871898 25.957352633546506 a86.0,86.0 0 0,1 42.26535254187918,-11.944610805530505" fill="none" id="id48" stroke="none" /><text fill="#e1ed5e" style="font-size:6.75px; font-family:Arial;" text-anchor="middle"><textPath startOffset="22.20632615414155" xlink:href="#id48">December</textPath></text></svg>