<?xml version="1.0" encoding="utf-8" ?>
<svg baseProfile="full" height="200mm" version="1.1" viewBox="0,0,200,200" width="200mm" xmlns="http://www.w3.org/2000/svg" xmlns:ev="http://www.w3.org/2001/xml-events" xmlns:xlink="http://www.w3.org/1999/xlink"><defs /><rect fill="#1a1a1a" height="200" width="200" x="0" y="0" /><text alignment-baseline="middle" fill="#e1ed5e" style="dominant-baseline: central; font-size:9.0px; font-family:Arial;" text-anchor="middle" x="100.0" y="100.0">2024</text><line stroke="#e1ed5e" stroke-width="0.3" x1="100.0" x2="100.0" y1="15.0" y2="10.0" /><path d="M 100.0 14.0 a86.0,86.0 0 0,1 42.35913384403234,11.155469271406648" fill="none" id="id25" stroke="none" /><text fill="#e1ed5e" style="font-size:6.75px; font-family:Arial;" text-anchor="middle"><textPath startOffset="22.145653131862478" xlink:href="#id25">January</textPath></text><line stroke="#e1ed5e" stroke-width="0.3" x1="143.13028292997686" x2="145.6673583964461" y1="26.7553504044142" y2="22.446841604673864" /><path d="M 143.63769802327073 25.89364864446614 a86.0,86.0 0 0,1 29.32050498858742,28.57503671076993" fill="none" id="id26" stroke="none" /><text fill="#e1ed5e" style="font-size:6.75px; font-family:Arial;" text-anchor="middle"><textPath startOffset="20.669276256404974" xlink:href="#id26">February</textPath></text><line stroke="#e1ed5e" stroke-width="0.3" x1="172.87174338648825" x2="177.1583165268699" y1="56.24261187166439" y2="53.66864786411523" /><path d="M 173.72905801456457 55.72781907015455 a86.0,86.0 0 0,1 12.242430191666344,42.057860355516425" fill="none" id="id27" stroke="none" /><text fill="#e1ed5e" style="font-size:6.75px; font-family:Arial;" text-anchor="middle"><textPath startOffset="22.145653131862474" xlink:href="#id27">March</textPath></text><line stroke="#e1ed5e" stroke-width="0.3" x1="184.99686870605535" x2="189.99668451229388" y1="99.2704041080226" y2="99.22748670261217" /><path d="M 185.99683186730306 99.26182062694052 a86.0,86.0 0 0,1 -10.086455211305974,41.156179273409016" fill="none" id="id28" stroke="none" /><text fill="#e1ed5e" style="font-size:6.75px; font-family:Arial;" text-anchor="middle"><textPath startOffset="21.40746469413373" xlink:href="#id28">April</textPath></text><line stroke="#e1ed5e" stroke-width="0.3" x1="174.33088141563837" x2="178.70328620479359" y1="141.23008692659167" y2="143.65538615756765" /><path d="M 175.20536237346943 141.71514677278685 a86.0,86.0 0 0,1 -30.301960400862466,31.631185727798858" fill="none" id="id29" stroke="none" /><text fill="#e1ed5e" style="font-size:6.75px; font-family:Arial;" text-anchor="middle"><textPath startOffset="22.145653131862474" xlink:href="#id29">May</textPath></text><path d="M 114.91283532996326 114.78537596483092 l 21.178428604248424 20.997417481636873 a50.82310143233593,50.82310143233593 0 0,0 -0.6195773624158321,0.6142818612239616 l -20.81485932170263 -21.357879353089494" fill="red" stroke="none" /><line stroke="#e1ed5e" stroke-width="0.3" x1="143.1302829299769" x2="145.66735839644613" y1="173.24464959558577" y2="177.55315839532614" /><path d="M 143.63769802327073 174.10635135553383 a86.0,86.0 0 0,1 -40.68552437913181,11.842963189579606" fill="none" id="id30" stroke="none" /><text fill="#e1ed5e" style="font-size:6.75px; font-family:Arial;" text-anchor="middle"><textPath startOffset="21.407464694133747" xlink:href="#id30">June</textPath></text><path d="M 106.72888874123015 119.89276391827305 l 19.699917923149133 58.2393068937738 a82.48092089133003,82.48092089133003 0 0,0 -1.3451352372931673,0.4421726702789942 l -18.69725994820823 -58.56890048545482" fill="red" stroke="none" /><path d="M 102.875027216393 120.80226474461374 l 3.9984758414322052 28.930979350090894 a50.20598183951196,50.20598183951196 0 0,0 -0.8547500943511663,0.1106645124068086 l -3.5012479251902637 -28.995355458698096" fill="red" stroke="none" /><line stroke="#e1ed5e" stroke-width="0.3" x1="101.45913802915013" x2="101.54496967792366" y1="184.9874750549273" y2="189.98673829345242" /><path d="M 101.47630435890484 185.9873277026323 a86.0,86.0 0 0,1 -42.54439059252881,-10.42667462771756" fill="none" id="id31" stroke="none" /><text fill="#e1ed5e" style="font-size:6.75px; font-family:Arial;" text-anchor="middle"><textPath startOffset="22.145653131862474" xlink:href="#id31">July</textPath></text><path d="M 99.63950707515114 120.99690560180557 l -1.0814787745465488 62.990716805416696 a84.0,84.0 0 0,0 -1.4415467437170244,-0.03712913059981027 l 2.1626388323343173 -62.962869957466836" fill="red" stroke="none" /><line stroke="#e1ed5e" stroke-width="0.3" x1="58.13341422392154" x2="55.67067388415222" y1="173.97424548756322" y2="178.32567169271397" /><path d="M 57.64086615596768 174.84453072859336 a86.0,86.0 0 0,1 -31.369924170532247,-30.572349798747897" fill="none" id="id32" stroke="none" /><text fill="#e1ed5e" style="font-size:6.75px; font-family:Arial;" text-anchor="middle"><textPath startOffset="22.145653131862474" xlink:href="#id32">August</textPath></text><line stroke="#e1ed5e" stroke-width="0.3" x1="26.387840678322732" x2="22.057713659400534" y1="142.50000000000003" y2="145.00000000000006" /><path d="M 25.521815274538284 143.00000000000003 a86.0,86.0 0 0,1 -11.493303480769212,-40.785679425670985" fill="none" id="id33" stroke="none" /><text fill="#e1ed5e" style="font-size:6.75px; font-family:Arial;" text-anchor="middle"><textPath startOffset="21.40746469413373" xlink:href="#id33">September</textPath></text><path d="M 80.16572619554312 106.89939002012753 l -28.366488894418822 9.867337333027741 a51.03368172970056,51.03368172970056 0 0,0 -0.2807206776483972,-0.8299008026719672 l 28.531694993639586 -9.378934855881612" fill="red" stroke="none" /><path d="M 80.05021161711548 106.5578916946017 l -31.196085769562266 10.25477302545273 a53.83833334908211,53.83833334908211 0 0,0 -0.2810752847050246,-0.8804643260247734 l 31.367525770044548 -9.717739665736564" fill="red" stroke="none" /><path d="M 79.407916724674 104.11899336999214 l -29.260442902183005 5.852908066933665 a50.84007459226416,50.84007459226416 0 0,0 -0.16383506420524882,-0.8572542860302712 l 29.356604258670412 -5.3497512158700795" fill="red" stroke="none" /><path d="M 79.2786578344484 103.40968896794605 l -30.10710862828192 4.954113267685302 a51.51198499318298,51.51198499318298 0 0,0 -0.136086098305607,-0.8737703727019797 l 30.187716218725797 -4.436554713051872" fill="red" stroke="none" /><line stroke="#e1ed5e" stroke-width="0.3" x1="15.003131293944662" x2="10.003315487706104" y1="100.72959589197737" y2="100.7725132973878" /><path d="M 14.003168132696942 100.73817937305945 a86.0,86.0 0 0,1 10.791469493833604,-42.45332614584628" fill="none" id="id34" stroke="none" /><text fill="#e1ed5e" style="font-size:6.75px; font-family:Arial;" text-anchor="middle"><textPath startOffset="22.145653131862435" xlink:href="#id34">October</textPath></text><path d="M 80.28708602549916 92.7611449362534 l -30.002282693809402 -11.01725378008396 a52.961177195060095,52.961177195060095 0 0,0 0.32071603277515626,-0.8507373802929644 l 29.80873597721981 11.53065944057107" fill="red" stroke="none" /><path d="M 80.5471966667186 92.08871423366112 l -29.946958048728984 -12.179167130668374 a53.32881699612726,53.32881699612726 0 0,0 0.35215850756222083,-0.8450522193460641 l 29.733473696630288 12.6914518594557" fill="red" stroke="none" /><path d="M 81.63589988554816 89.8137432299009 l -52.78334466331139 -29.27803151661152 a81.35962726304413,81.35962726304413 0 0,0 0.6879407255340206,-1.2155253448114458 l 52.272970572756 30.179813631522073" fill="red" stroke="none" /><line stroke="#e1ed5e" stroke-width="0.3" x1="26.387840678322718" x2="22.05771365940052" y1="57.49999999999999" y2="54.99999999999999" /><path d="M 25.521815274538284 56.99999999999999 a86.0,86.0 0 0,1 29.574782752854787,-30.34633250058573" fill="none" id="id35" stroke="none" /><text fill="#e1ed5e" style="font-size:6.75px; font-family:Arial;" text-anchor="middle"><textPath startOffset="21.40746469413373" xlink:href="#id35">November</textPath></text><path d="M 82.78059297857968 87.97951657250589 l -48.77625848388981 -34.04961657688987 a80.48529045672086,80.48529045672086 0 0,0 0.8005791412780332,-1.1261148214801666 l 48.184564244081805 34.881908625079554" fill="red" stroke="none" /><path d="M 83.2033758604659 87.39550010848427 l -15.784000701868944 -11.844608385688966 a40.73396630094753,40.73396630094753 0 0,0 0.42450228473707957,-0.5556871174272401 l 15.578346439777558 12.113816416357091" fill="red" stroke="none" /><path d="M 85.60350026404147 84.71141617570332 l -22.291801659197894 -23.673120863538248 a53.51678140026635,53.51678140026635 0 0,0 0.6742355758861734,-0.6240623832875581 l 21.882136311997765 24.052300992958173" fill="red" stroke="none" /><path d="M 86.13680546590413 84.22622945171909 l -19.687831340907323 -22.4011380206012 a50.823173666228705,50.823173666228705 0 0,0 0.660266889510648,-0.570322813391038 l 19.300384971633825 22.735804966456946" fill="red" stroke="none" /><path d="M 86.68645165197937 83.75963576809568 l -19.303080239536712 -23.54661925529106 a51.44753167479486,51.44753167479486 0 0,0 0.6878026135629887,-0.5540450984939529 l 18.896026855618477 23.87451264757841" fill="red" stroke="none" /><line stroke="#e1ed5e" stroke-width="0.3" x1="56.869717070023135" x2="54.33264160355391" y1="26.7553504044142" y2="22.446841604673864" /><path d="M 56.362301976729285 25.89364864446614 a86.0,86.0 0 0,1 42.16139366436587,-11.88097634709845" fill="none" id="id36" stroke="none" /><text fill="#e1ed5e" style="font-size:6.75px; font-family:Arial;" text-anchor="middle"><textPath startOffset="22.145653131862474" xlink:href="#id36">December</textPath></text></svg>